<svg version="1.0" xmlns="http://www.w3.org/2000/svg"
 width="1024.000000pt" height="1024.000000pt" viewBox="0 0 1024.000000 1024.000000"
 preserveAspectRatio="xMidYMid meet">

<g transform="translate(0.000000,1024.000000) scale(0.100000,-0.100000)"
fill="#F1C40F" stroke="none">
<path d="M253 9901 c-93 -34 -164 -93 -222 -185 l-31 -50 0 -1803 0 -1804 25
-49 c53 -105 182 -198 305 -220 37 -7 851 -9 2395 -8 l2340 3 58 24 c119 47
221 159 258 281 19 64 19 97 17 1786 l-3 1720 -37 75 c-57 115 -140 190 -252
229 -59 20 -72 20 -2430 20 -2287 -1 -2373 -1 -2423 -19z m4768 -222 c51 -18
97 -55 122 -102 21 -40 22 -55 25 -305 l3 -262 -2483 2 -2483 3 0 245 c0 135
4 262 8 283 10 48 78 124 121 136 49 14 4645 14 4687 0z m157 -2208 l-3 -1319
-30 -43 c-16 -23 -50 -53 -74 -66 l-44 -23 -2347 2 -2346 3 -41 27 c-26 17
-49 45 -64 75 l-24 48 -3 1308 -2 1307 2490 0 2490 0 -2 -1319z"/>
<path d="M3730 9350 l0 -120 120 0 120 0 0 120 0 120 -120 0 -120 0 0 -120z"/>
<path d="M4210 9350 l0 -120 115 0 115 0 0 120 0 120 -115 0 -115 0 0 -120z"/>
<path d="M4680 9350 l0 -121 118 3 117 3 0 115 0 115 -117 3 -118 3 0 -121z"/>
<path d="M6037 7983 c-4 -3 -7 -57 -7 -120 l0 -113 874 0 c933 0 954 -1 1106
-51 291 -95 535 -329 631 -606 52 -149 52 -149 56 -798 l4 -610 -286 285 -285
285 -87 -88 -88 -87 425 -425 425 -425 425 425 425 425 -88 87 -87 88 -279
-279 -280 -279 -4 614 c-4 665 -4 665 -63 844 -150 453 -546 772 -1026 824
-107 12 -1780 16 -1791 4z"/>
<path d="M990 4585 l-425 -425 85 -85 c46 -47 87 -85 90 -85 3 0 127 129 275
286 l270 286 6 -623 c6 -686 6 -679 74 -869 149 -410 515 -715 945 -785 80
-13 233 -15 988 -15 l892 0 0 115 0 115 -822 0 c-850 0 -990 5 -1118 40 -184
51 -382 180 -499 325 -95 118 -148 221 -194 380 -20 67 -21 99 -24 695 l-4
625 283 -283 283 -282 87 87 87 87 -357 351 c-196 192 -389 380 -427 417 l-71
67 -424 -424z"/>
<path d="M5192 4449 c-111 -22 -221 -96 -282 -191 -76 -117 -71 19 -68 -1899
l3 -1715 37 -75 c57 -116 146 -194 263 -233 47 -15 245 -16 2435 -14 l2385 3
65 32 c79 39 138 88 179 150 l31 46 0 1833 0 1832 -45 60 c-50 66 -122 121
-205 155 l-55 22 -2350 1 c-1292 1 -2369 -2 -2393 -7z m4766 -263 c26 -18 51
-47 67 -79 25 -51 25 -53 25 -309 l0 -258 -2487 2 -2488 3 -3 244 c-3 275 4
314 61 369 69 67 -137 62 2443 59 l2341 -2 41 -29z m92 -2168 c0 -1239 -1
-1305 -19 -1343 -23 -51 -79 -101 -128 -114 -56 -16 -4638 -15 -4684 0 -51 18
-97 55 -122 102 l-22 42 -3 1308 -2 1307 2490 0 2490 0 0 -1302z"/>
<path d="M8600 3885 l0 -115 120 0 120 0 0 115 0 115 -120 0 -120 0 0 -115z"/>
<path d="M9070 3885 l0 -115 120 0 120 0 0 115 0 115 -120 0 -120 0 0 -115z"/>
<path d="M9550 3885 l0 -115 115 0 115 0 0 115 0 115 -115 0 -115 0 0 -115z"/>
</g>
</svg>
