<svg width="252" height="300" viewBox="0 0 252 300" fill="none" xmlns="http://www.w3.org/2000/svg">
<path d="M126.631 0.059856C125.482 0.076756 124.354 0.372335 123.346 0.921014C122.338 1.46971 121.48 2.25471 120.848 3.20783C108.013 21.8234 67.3295 37.6487 20.784 37.9223C20.692 37.9205 20.6002 37.9205 20.5084 37.9223C20.2058 37.8707 19.9 37.8385 19.5934 37.8265C17.9665 37.8193 16.3872 38.3713 15.1232 39.3885C13.8591 40.4057 12.9881 41.8257 12.6576 43.4079C12.6576 43.4079 5.62267 75.0462 2.09852 113.313C-1.42581 151.581 -2.15236 196.394 13.3163 225.328C24.9044 247.001 52.3221 264.423 76.7988 277.683C99.438 289.949 118.11 297.371 121.048 298.527C122.378 299.553 124.033 300.071 125.715 299.991C127.419 300.075 129.097 299.541 130.436 298.489H130.464C133.523 297.289 152.101 289.921 174.658 277.701C199.134 264.441 226.516 247.019 238.104 225.346C253.573 196.412 252.845 151.6 249.321 113.332C245.798 75.065 238.764 43.4269 238.764 43.4269C238.428 41.8135 237.53 40.3693 236.228 39.3485C234.924 38.3277 233.301 37.7953 231.644 37.8453C231.448 37.8373 231.254 37.8373 231.058 37.8453C186.334 37.6671 147.045 22.6814 133.336 4.59457C132.835 3.23217 131.918 2.05867 130.715 1.23573C129.512 0.412795 128.081 -0.0189179 126.621 0.000636085L126.631 0.059856Z" fill="#6495ED"/>
<path d="M94.1245 106.751C95.5281 106.753 96.8989 107.171 98.0617 107.953C99.2245 108.735 100.127 109.844 100.652 111.138C101.177 112.433 101.302 113.854 101.011 115.22C100.72 116.586 100.026 117.834 99.0169 118.805L68.0292 149.527L99.0169 180.248C99.7009 180.891 100.248 181.665 100.627 182.522C101.005 183.378 101.207 184.303 101.221 185.24C101.235 186.176 101.06 187.106 100.707 187.974C100.354 188.842 99.8291 189.631 99.1645 190.294C98.4999 190.957 97.7085 191.481 96.8369 191.835C95.9653 192.19 95.0313 192.366 94.0901 192.355C93.1487 192.345 92.2191 192.146 91.3561 191.772C90.4929 191.399 89.7139 190.856 89.0649 190.177L53.0708 154.491C52.4144 153.84 51.8936 153.066 51.5382 152.214C51.183 151.362 51 150.449 51 149.527C51 148.604 51.183 147.69 51.5382 146.839C51.8936 145.987 52.4144 145.213 53.0708 144.56L89.0649 108.867C89.7233 108.196 90.5101 107.662 91.3791 107.299C92.2483 106.935 93.1819 106.749 94.1245 106.751Z" fill="white"/>
<path d="M153.955 107.945C155.119 107.163 156.49 106.744 157.894 106.743C158.836 106.741 159.77 106.927 160.638 107.291C161.507 107.654 162.295 108.187 162.952 108.858L198.947 144.553C199.603 145.204 200.123 145.978 200.479 146.83C200.835 147.682 201.017 148.595 201.017 149.517C201.017 150.44 200.835 151.353 200.479 152.205C200.123 153.057 199.603 153.831 198.947 154.482L162.952 190.17C162.304 190.847 161.525 191.39 160.662 191.764C159.799 192.137 158.869 192.336 157.928 192.346C156.986 192.357 156.053 192.181 155.181 191.826C154.309 191.473 153.517 190.949 152.853 190.286C152.189 189.622 151.664 188.833 151.31 187.965C150.957 187.097 150.782 186.168 150.797 185.231C150.81 184.294 151.013 183.371 151.391 182.513C151.769 181.656 152.317 180.883 153 180.238L183.988 149.517L153 118.796C151.992 117.825 151.298 116.577 151.006 115.212C150.715 113.846 150.84 112.425 151.366 111.13C151.891 109.836 152.794 108.726 153.955 107.945Z" fill="white"/>
<path d="M143.772 80.0046C142.269 80.0592 140.821 80.5912 139.643 81.5228C138.464 82.4542 137.617 83.7364 137.223 85.1818L101.229 210.09C100.965 210.978 100.879 211.91 100.978 212.832C101.077 213.752 101.359 214.644 101.806 215.456C102.254 216.27 102.859 216.986 103.586 217.564C104.314 218.142 105.149 218.57 106.044 218.826C106.939 219.082 107.875 219.158 108.8 219.052C109.725 218.944 110.62 218.658 111.432 218.206C112.245 217.752 112.959 217.144 113.534 216.416C114.109 215.688 114.533 214.854 114.782 213.96L150.776 89.0432C151.101 87.9748 151.165 86.8448 150.962 85.747C150.76 84.6492 150.297 83.6154 149.611 82.7316C148.926 81.8476 148.039 81.139 147.023 80.6648C146.008 80.1904 144.893 79.9642 143.772 80.0046Z" fill="white"/>
<path d="M94.1245 106.751C95.5281 106.753 96.8989 107.171 98.0617 107.953C99.2245 108.735 100.127 109.844 100.652 111.138C101.177 112.433 101.302 113.854 101.011 115.22C100.72 116.586 100.026 117.834 99.0169 118.805L68.0292 149.527L99.0169 180.248C99.7009 180.891 100.248 181.665 100.627 182.522C101.005 183.378 101.207 184.303 101.221 185.24C101.235 186.176 101.06 187.106 100.707 187.974C100.354 188.842 99.8291 189.631 99.1645 190.294C98.4999 190.957 97.7085 191.481 96.8369 191.835C95.9653 192.19 95.0313 192.366 94.0901 192.355C93.1487 192.345 92.2191 192.146 91.3561 191.772C90.4929 191.399 89.7139 190.856 89.0649 190.177L53.0708 154.491C52.4144 153.84 51.8936 153.066 51.5382 152.214C51.183 151.362 51 150.449 51 149.527C51 148.604 51.183 147.69 51.5382 146.839C51.8936 145.987 52.4144 145.213 53.0708 144.56L89.0649 108.867C89.7233 108.196 90.5101 107.662 91.3791 107.299C92.2483 106.935 93.1819 106.749 94.1245 106.751Z" stroke="white" stroke-width="2"/>
<path d="M153.955 107.945C155.119 107.163 156.49 106.744 157.894 106.743C158.836 106.741 159.77 106.927 160.638 107.291C161.507 107.654 162.295 108.187 162.952 108.858L198.947 144.553C199.603 145.204 200.123 145.978 200.479 146.83C200.835 147.682 201.017 148.595 201.017 149.517C201.017 150.44 200.835 151.353 200.479 152.205C200.123 153.057 199.603 153.831 198.947 154.482L162.952 190.17C162.304 190.847 161.525 191.39 160.662 191.764C159.799 192.137 158.869 192.336 157.928 192.346C156.986 192.357 156.053 192.181 155.181 191.826C154.309 191.473 153.517 190.949 152.853 190.286C152.189 189.622 151.664 188.833 151.31 187.965C150.957 187.097 150.782 186.168 150.797 185.231C150.81 184.294 151.013 183.371 151.391 182.513C151.769 181.656 152.317 180.883 153 180.238L183.988 149.517L153 118.796C151.992 117.825 151.298 116.577 151.006 115.212C150.715 113.846 150.84 112.425 151.366 111.13C151.891 109.836 152.794 108.726 153.955 107.945Z" stroke="white" stroke-width="2"/>
<path d="M143.772 80.0046C142.269 80.0592 140.821 80.5912 139.643 81.5228C138.464 82.4542 137.617 83.7364 137.223 85.1818L101.229 210.09C100.965 210.978 100.879 211.91 100.978 212.832C101.077 213.752 101.359 214.644 101.806 215.456C102.254 216.27 102.859 216.986 103.586 217.564C104.314 218.142 105.149 218.57 106.044 218.826C106.939 219.082 107.875 219.158 108.8 219.052C109.725 218.944 110.62 218.658 111.432 218.206C112.245 217.752 112.959 217.144 113.534 216.416C114.109 215.688 114.533 214.854 114.782 213.96L150.776 89.0432C151.101 87.9748 151.165 86.8448 150.962 85.747C150.76 84.6492 150.297 83.6154 149.611 82.7316C148.926 81.8476 148.039 81.139 147.023 80.6648C146.008 80.1904 144.893 79.9642 143.772 80.0046Z" stroke="white" stroke-width="2"/>
</svg>
