<svg version="1.1" xmlns="http://www.w3.org/2000/svg" xmlns:xlink="http://www.w3.org/1999/xlink" width="18.9355" height="18.584">
 <g>
  <rect height="18.584" opacity="0" width="18.9355" x="0" y="0"/>
  <path d="M17.3096 1.27441C16.2891 0.258789 14.917 0 12.9443 0L5.61523 0C3.66211 0 2.28516 0.258789 1.26465 1.27441C0.249023 2.29004 0 3.64746 0 5.61523L0 12.9443C0 14.9268 0.249023 16.2842 1.26465 17.2998C2.29004 18.3154 3.66211 18.5742 5.625 18.5742L12.9443 18.5742C14.917 18.5742 16.2939 18.3154 17.3096 17.2998C18.3252 16.2793 18.5742 14.9268 18.5742 12.9443L18.5742 5.625C18.5742 3.64258 18.3252 2.28516 17.3096 1.27441ZM16.0547 5.35645L16.0547 13.2178C16.0547 14.248 15.9229 14.9902 15.459 15.4492C15 15.9082 14.248 16.0547 13.2227 16.0547L5.35645 16.0547C4.33105 16.0547 3.57422 15.9082 3.11035 15.4492C2.65625 14.9902 2.51953 14.248 2.51953 13.2178L2.51953 5.37109C2.51953 4.32129 2.65625 3.58398 3.11035 3.12012C3.57422 2.66602 4.33594 2.51953 5.37109 2.51953L13.2227 2.51953C14.248 2.51953 15 2.66602 15.459 3.125C15.9229 3.58398 16.0547 4.32129 16.0547 5.35645Z" fill="#ffa500" fill-opacity="0.85"/>
  <path d="M12.3145 12.0508C12.9004 12.0508 13.2666 11.6162 13.2666 10.9814L13.2666 6.54785C13.2666 5.71777 12.7832 5.2832 11.9873 5.2832L7.53418 5.2832C6.87988 5.2832 6.46484 5.64941 6.46484 6.23535C6.46484 6.82129 6.87988 7.1875 7.5293 7.1875L8.9502 7.1875L10.1025 7.03125L8.7793 8.19824L5.66406 11.3184C5.44922 11.5283 5.31738 11.8262 5.31738 12.1143C5.31738 12.7637 5.7959 13.1934 6.40625 13.1934C6.72363 13.1934 6.99707 13.0811 7.24121 12.8418L10.332 9.75586L11.4941 8.44238L11.3574 9.65332L11.3574 10.9814C11.3574 11.626 11.7236 12.0508 12.3145 12.0508Z" fill="#ffa500" fill-opacity="0.85"/>
 </g>
</svg>
