<svg version="1.1" xmlns="http://www.w3.org/2000/svg" xmlns:xlink="http://www.w3.org/1999/xlink" width="27.4512" height="21.3989">
 <g>
  <rect height="21.3989" opacity="0" width="27.4512" x="0" y="0"/>
  <path d="M6.67341 6.83602C4.4651 8.32186 3.10547 10.1044 3.10547 10.7092C3.10547 12.0422 7.63184 16.8469 13.5449 16.8469C14.5179 16.8469 15.454 16.7162 16.3337 16.4824L18.3628 18.5085C16.9094 19.0094 15.2924 19.3079 13.5449 19.3079C5.45898 19.3079 0 12.7161 0 10.7092C0 9.57407 1.75673 6.96477 4.7542 4.91958ZM27.0898 10.7092C27.0898 11.8473 25.375 14.46 22.3892 16.5072L20.4908 14.61C22.6541 13.1692 23.9844 11.4307 23.9844 10.7092C23.9844 9.60571 19.4434 4.5813 13.5449 4.5813C12.5944 4.5813 11.6797 4.71113 10.8193 4.944L8.7895 2.91537C10.2326 2.41708 11.8298 2.12036 13.5449 2.12036C21.7529 2.12036 27.0898 8.70728 27.0898 10.7092ZM15.1739 15.3242C14.6684 15.5086 14.1213 15.6067 13.5498 15.6067C10.8203 15.6067 8.6377 13.3704 8.6377 10.7043C8.6377 10.1306 8.73412 9.58215 8.91675 9.07613ZM18.4521 10.7043C18.4521 11.2607 18.3575 11.7983 18.1782 12.2986L11.9556 6.07964C12.4532 5.90744 12.99 5.81665 13.5498 5.81665C16.2793 5.81665 18.4521 7.97974 18.4521 10.7043Z" fill="#6495ED" fill-opacity="1"/>
  <path d="M21.3232 19.6106C21.6406 19.9377 22.1582 19.9475 22.4854 19.6106C22.8076 19.2737 22.8027 18.7756 22.4854 18.4485L5.57129 1.54907C5.25391 1.22681 4.72168 1.22681 4.39453 1.54907C4.08691 1.86157 4.08691 2.40356 4.39453 2.71118Z" fill="#6495ED" fill-opacity="1"/>
 </g>
</svg>