<svg version="1.1" xmlns="http://www.w3.org/2000/svg" xmlns:xlink="http://www.w3.org/1999/xlink" width="27.4512" height="17.2168">
 <g>
  <rect height="17.2168" opacity="0" width="27.4512" x="0" y="0"/>
  <path d="M13.5449 17.2168C21.7578 17.2168 27.0898 10.625 27.0898 8.61816C27.0898 6.61621 21.7529 0.0292969 13.5449 0.0292969C5.46387 0.0292969 0 6.61621 0 8.61816C0 10.625 5.45898 17.2168 13.5449 17.2168ZM13.5449 14.7559C7.63184 14.7559 3.10547 9.95117 3.10547 8.61816C3.10547 7.51465 7.63184 2.49023 13.5449 2.49023C19.4434 2.49023 23.9844 7.51465 23.9844 8.61816C23.9844 9.95117 19.4434 14.7559 13.5449 14.7559ZM13.5498 13.5156C16.2793 13.5156 18.4521 11.2793 18.4521 8.61328C18.4521 5.88867 16.2793 3.72559 13.5498 3.72559C10.8203 3.72559 8.6377 5.88379 8.6377 8.61328C8.6377 11.2793 10.8203 13.5156 13.5498 13.5156ZM13.54 10.127C12.71 10.127 12.041 9.43848 12.041 8.61816C12.041 7.79297 12.71 7.11914 13.54 7.11914C14.3799 7.11914 15.0537 7.79297 15.0537 8.61816C15.0537 9.43848 14.3799 10.127 13.54 10.127Z" fill="#6495ED" fill-opacity="1"/>
 </g>
</svg>