<svg version="1.0" xmlns="http://www.w3.org/2000/svg"
 width="512.000000pt" height="512.000000pt" viewBox="0 0 512.000000 512.000000"
 preserveAspectRatio="xMidYMid meet">

<g transform="translate(0.000000,512.000000) scale(0.100000,-0.100000)"
fill="#F1C40F" stroke="none">
<path d="M370 4769 c-123 -20 -247 -107 -313 -219 -60 -103 -57 8 -57 -1990 0
-1618 2 -1833 16 -1885 43 -168 189 -297 364 -325 90 -14 4270 -14 4360 0 175
28 321 157 364 325 14 52 16 267 16 1885 0 1618 -2 1833 -16 1885 -43 168
-189 297 -364 325 -82 12 -4290 12 -4370 -1z m4422 -177 c65 -33 124 -96 148
-159 19 -51 20 -78 20 -478 l0 -425 -2400 0 -2400 0 0 425 c0 400 1 427 20
478 33 87 118 159 210 178 19 4 1007 6 2195 5 l2160 -1 47 -23z m168 -2537 c0
-1295 0 -1315 -20 -1367 -34 -89 -101 -148 -195 -173 -52 -13 -302 -15 -2185
-15 -1883 0 -2133 2 -2185 15 -94 25 -161 84 -195 173 -20 52 -20 72 -20 1367
l0 1315 2400 0 2400 0 0 -1315z"/>
<path d="M595 4321 c-172 -44 -251 -220 -168 -374 45 -82 123 -127 220 -127
173 0 292 164 241 332 -15 52 -87 132 -136 151 -49 20 -119 28 -157 18z m90
-165 c60 -26 74 -92 29 -145 -33 -40 -89 -43 -131 -7 -50 43 -32 130 32 157
28 11 31 11 70 -5z"/>
<path d="M1265 4321 c-172 -44 -251 -220 -168 -374 45 -82 123 -127 220 -127
173 0 292 164 241 332 -15 52 -87 132 -136 151 -49 20 -119 28 -157 18z m90
-165 c60 -26 74 -92 29 -145 -33 -40 -89 -43 -131 -7 -50 43 -32 130 32 157
28 11 31 11 70 -5z"/>
<path d="M1935 4321 c-172 -44 -251 -220 -168 -374 45 -82 123 -127 220 -127
173 0 292 164 241 332 -15 52 -87 132 -136 151 -49 20 -119 28 -157 18z m90
-165 c60 -26 74 -92 29 -145 -33 -40 -89 -43 -131 -7 -50 43 -32 130 32 157
28 11 31 11 70 -5z"/>
<path d="M3347 4319 c-58 -14 -91 -34 -134 -83 -112 -127 -71 -320 82 -392
l50 -24 593 0 c641 0 622 -1 695 54 42 32 83 107 92 168 15 100 -46 212 -142
259 l-48 24 -575 2 c-318 1 -592 -3 -613 -8z m1190 -181 c39 -39 39 -100 0
-134 l-28 -24 -574 0 -573 0 -26 31 c-28 32 -34 76 -15 110 25 48 37 49 631
46 l558 -2 27 -27z"/>
<path d="M1344 2895 l-25 -25 4 -627 c3 -707 0 -671 83 -838 103 -210 294
-366 522 -427 106 -28 288 -30 392 -4 143 36 265 103 374 205 107 102 176 215
223 368 l27 88 4 613 3 612 -30 30 -29 30 -227 0 -226 0 -24 -25 -25 -24 0
-564 c0 -649 1 -637 -80 -718 -102 -102 -256 -101 -359 2 -69 69 -65 32 -71
687 l-5 594 -28 24 c-28 24 -30 24 -253 24 l-225 0 -25 -25z m376 -665 c0
-510 1 -533 21 -592 50 -151 169 -251 330 -280 210 -37 422 113 468 330 7 35
11 226 11 562 l0 510 121 0 120 0 -4 -552 c-3 -492 -5 -560 -21 -612 -67 -226
-245 -401 -467 -462 -41 -11 -101 -18 -169 -18 -184 -1 -328 60 -460 193 -87
88 -141 181 -170 297 -19 72 -20 112 -20 616 l0 538 120 0 120 0 0 -530z"/>
<path d="M3269 2891 l-29 -29 0 -927 0 -927 30 -29 30 -30 231 3 c229 3 231 3
250 27 18 22 19 53 19 958 l0 934 -25 24 -24 25 -226 0 -227 0 -29 -29z m371
-956 l0 -825 -120 0 -120 0 0 825 0 825 120 0 120 0 0 -825z"/>
</g>
</svg>
