<svg version="1.0" xmlns="http://www.w3.org/2000/svg"
 width="512.000000pt" height="512.000000pt" viewBox="0 0 512.000000 512.000000"
 preserveAspectRatio="xMidYMid meet">

<g transform="translate(0.000000,512.000000) scale(0.100000,-0.100000)"
fill="#F1C40F" stroke="none">
<path d="M287 4569 c-103 -24 -206 -111 -254 -214 l-28 -60 0 -1735 0 -1735
28 -60 c37 -79 114 -156 191 -192 l61 -28 2275 0 2275 0 65 31 c82 39 144 101
184 184 l31 65 0 1735 0 1735 -31 65 c-40 83 -102 145 -184 184 l-65 31 -2255
2 c-1289 0 -2271 -3 -2293 -8z m4574 -174 c24 -17 57 -50 74 -74 l30 -43 3
-299 3 -299 -137 0 c-158 0 -174 -7 -174 -70 0 -65 21 -74 176 -78 l134 -4 0
-1320 c0 -1012 -3 -1330 -12 -1362 -8 -25 -31 -59 -58 -86 -27 -27 -61 -50
-86 -58 -55 -16 -4448 -18 -4507 -1 -53 14 -132 93 -146 144 -8 28 -11 436
-11 1362 l0 1323 2129 2 c2078 3 2129 3 2150 22 26 23 28 81 4 108 -15 17 -95
18 -2150 18 l-2133 0 0 278 c0 168 4 292 11 316 14 50 83 123 134 141 34 12
367 14 2282 12 l2241 -2 43 -30z"/>
<path d="M435 4263 c-81 -42 -127 -116 -127 -203 0 -125 94 -220 217 -220 132
0 224 90 225 218 0 90 -43 162 -122 203 -47 24 -150 25 -193 2z m149 -155 c9
-12 16 -34 16 -48 0 -43 -26 -70 -69 -70 -66 0 -100 72 -56 120 26 29 89 27
109 -2z"/>
<path d="M1085 4263 c-136 -71 -173 -232 -78 -342 48 -57 99 -81 170 -81 130
1 223 92 223 220 0 87 -49 167 -125 201 -50 23 -148 24 -190 2z m145 -153 c45
-45 11 -120 -54 -120 -37 0 -76 36 -76 70 0 10 9 29 21 44 26 33 79 36 109 6z"/>
<path d="M1715 4263 c-136 -71 -173 -232 -78 -342 48 -57 99 -81 170 -81 130
1 223 92 223 220 0 87 -49 167 -125 201 -50 23 -148 24 -190 2z m145 -153 c45
-45 11 -120 -54 -120 -37 0 -76 36 -76 70 0 10 9 29 21 44 26 33 79 36 109 6z"/>
<path d="M2385 4264 c-136 -72 -173 -233 -78 -343 19 -23 54 -52 77 -64 l41
-22 1055 -3 c661 -2 1079 1 1119 7 123 19 196 102 196 221 0 80 -32 141 -96
186 l-42 29 -1121 2 c-1006 2 -1124 1 -1151 -13z m2244 -160 c27 -35 26 -57
-3 -91 l-24 -28 -1077 0 -1077 0 -24 28 c-29 34 -30 56 -3 91 l20 26 1084 0
1084 0 20 -26z"/>
<path d="M1065 3154 c-5 -1 -27 -5 -47 -8 -24 -5 -54 -22 -87 -52 -83 -75 -81
-57 -81 -728 0 -332 5 -611 10 -651 28 -192 121 -346 284 -469 96 -72 220
-132 316 -152 97 -20 265 -20 355 0 246 57 461 220 556 421 64 136 63 120 67
803 4 697 4 695 -63 763 -49 51 -96 71 -165 71 -62 0 -107 -18 -153 -61 -65
-59 -62 -24 -67 -716 -5 -627 -5 -630 -27 -671 -44 -83 -162 -158 -269 -173
-122 -18 -224 18 -315 109 -76 75 -79 93 -79 438 0 316 -1 322 -69 322 -26 0
-44 -7 -57 -21 -18 -19 -19 -42 -22 -298 -4 -369 10 -438 106 -537 166 -172
397 -215 611 -113 109 51 206 146 242 234 l24 60 5 622 c6 689 2 653 70 655
25 1 40 -6 57 -27 l24 -27 -3 -622 c-3 -619 -3 -621 -26 -686 -121 -341 -571
-515 -907 -350 -140 68 -271 200 -314 314 -37 101 -41 164 -41 763 l0 582 23
27 c17 20 32 27 57 26 60 -2 64 -15 70 -191 4 -138 8 -162 24 -180 25 -27 79
-28 106 -1 18 18 20 33 20 185 0 181 -7 215 -58 268 -43 46 -136 83 -177 71z"/>
<path d="M2837 3146 c-129 -35 -202 -180 -150 -297 11 -24 116 -181 235 -349
118 -168 217 -310 221 -317 5 -7 -98 -162 -259 -390 -147 -208 -273 -392 -280
-410 -19 -43 -18 -125 2 -171 50 -121 196 -170 314 -106 45 24 70 56 272 342
123 174 226 320 229 325 4 5 105 -132 227 -305 121 -172 231 -323 244 -335 52
-49 163 -70 232 -44 100 38 159 151 135 259 -13 61 -218 358 -257 373 -46 18
-102 -23 -102 -75 0 -7 48 -82 107 -167 114 -163 124 -192 85 -231 -20 -20
-69 -27 -92 -13 -5 3 -113 153 -239 333 -127 180 -241 338 -255 351 -34 32
-101 38 -141 13 -18 -11 -125 -155 -262 -348 -127 -181 -237 -335 -244 -342
-7 -6 -30 -12 -50 -12 -43 0 -69 27 -69 71 0 19 84 145 280 424 167 237 282
410 285 429 4 17 2 42 -3 56 -6 14 -115 174 -242 355 -128 182 -235 338 -238
347 -14 55 43 106 97 87 18 -7 83 -91 216 -280 105 -149 203 -282 218 -295 33
-28 92 -32 135 -10 17 9 103 122 225 294 108 155 202 284 207 287 23 14 72 7
92 -13 44 -43 36 -59 -220 -422 -221 -313 -242 -346 -242 -384 0 -46 7 -59
104 -196 77 -109 103 -128 147 -109 33 13 49 36 49 71 0 13 -34 70 -74 127
l-74 103 181 257 c99 141 199 283 222 316 64 91 77 121 77 185 0 68 -25 123
-78 169 -47 42 -77 53 -146 52 -67 0 -122 -24 -164 -73 -16 -19 -103 -140
-194 -270 -91 -130 -168 -237 -171 -237 -4 -1 -69 88 -145 197 -226 322 -237
337 -286 360 -60 28 -105 33 -161 18z"/>
</g>
</svg>
